<mxfile host="app.diagrams.net" modified="2024-01-07T22:45:04.445Z" agent="Mozilla/5.0 (X11; Linux x86_64; rv:121.0) Gecko/20100101 Firefox/121.0" etag="Cmi5HArMM6OUfO1ip7bx" version="22.1.17" type="github">
  <diagram name="Page-1" id="jduWcLH4PLxlsx17z6p9">
    <mxGraphModel dx="2876" dy="1084" grid="1" gridSize="10" guides="1" tooltips="1" connect="1" arrows="1" fold="1" page="1" pageScale="1" pageWidth="827" pageHeight="1169" math="0" shadow="0">
      <root>
        <mxCell id="0" />
        <mxCell id="1" parent="0" />
        <mxCell id="FpnMMO0v_Rgfu-9a-DY7-2" value="Hetzner" style="ellipse;shape=cloud;whiteSpace=wrap;html=1;labelPosition=center;verticalLabelPosition=bottom;align=center;verticalAlign=top;" vertex="1" parent="1">
          <mxGeometry x="-30" y="10" width="1080" height="740" as="geometry" />
        </mxCell>
      </root>
    </mxGraphModel>
  </diagram>
</mxfile>
